<svg xmlns="http://www.w3.org/2000/svg" width="15" height="15" viewBox="0 0 15 15">
  <path fill="#FFFFFF" fill-rule="evenodd" d="M948,14.1721827 C948,14.6294026 947.629403,15 947.172183,15 L943.349759,15 L943.349759,9.19097818 L945.299583,9.19097818 L945.59173,6.92735148 L943.349759,6.92735148 L943.349759,5.48214432 C943.349759,4.82675492 943.531993,4.37974994 944.471766,4.37974994 L945.670589,4.37934134 L945.670589,2.35474381 C945.463022,2.32695922 944.751655,2.26526109 943.923838,2.26526109 C942.195473,2.26526109 941.012176,3.32025823 941.012176,5.25782463 L941.012176,6.92735148 L939.057449,6.92735148 L939.057449,9.19097818 L941.012176,9.19097818 L941.012176,15 L933.827817,15 C933.370597,15 933,14.6294026 933,14.1721827 L933,0.827817275 C933,0.370597369 933.370597,0 933.827817,0 L947.172183,0 C947.629403,0 948,0.370597369 948,0.827817275 L948,14.1721827" transform="translate(-933)"/>
</svg>
