<svg xmlns="http://www.w3.org/2000/svg" width="15" height="15" viewBox="0 0 15 15">
  <path fill="#FFFFFF" fill-rule="evenodd" d="M1067.217,0 L1055.783,0 C1054.79822,0 1054,0.796579658 1054,1.77890516 L1054,13.2210948 C1054,14.2038295 1054.79822,15 1055.783,15 L1067.217,15 C1068.20178,15 1069,14.2038295 1069,13.2210948 L1069,1.77890516 C1069,0.796579658 1068.20178,0 1067.217,0 L1067.217,0 Z M1064.78144,2.34391621 C1064.78144,2.08493577 1064.99133,1.87505114 1065.2499,1.87505114 L1066.65608,1.87505114 C1066.91506,1.87505114 1067.12495,2.08493577 1067.12495,2.34391621 L1067.12495,3.75010228 C1067.12495,4.00867359 1066.91506,4.21896735 1066.65608,4.21896735 L1065.2499,4.21896735 C1064.99133,4.21896735 1064.78144,4.00867359 1064.78144,3.75010228 L1064.78144,2.34391621 L1064.78144,2.34391621 Z M1061.51739,4.63955486 C1063.11055,4.63955486 1064.40218,5.9283201 1064.40218,7.5173881 C1064.40218,9.10686523 1063.11055,10.3956305 1061.51739,10.3956305 C1059.92464,10.3956305 1058.63301,9.10686523 1058.63301,7.5173881 C1058.63301,5.9283201 1059.92464,4.63955486 1061.51739,4.63955486 L1061.51739,4.63955486 Z M1067.59381,13.1249489 C1067.59381,13.3839293 1067.38393,13.5938139 1067.12495,13.5938139 L1055.87505,13.5938139 C1055.61607,13.5938139 1055.40619,13.3839293 1055.40619,13.1249489 L1055.40619,6.09401849 L1057.28124,6.09401849 C1057.03699,6.44546273 1056.95434,7.10130104 1056.95434,7.5173881 C1056.95434,10.0274118 1059.00164,12.0697979 1061.51739,12.0697979 C1064.03355,12.0697979 1066.08084,10.0274118 1066.08084,7.5173881 C1066.08084,7.10130104 1066.02152,6.45528189 1065.71876,6.09401849 L1067.59381,6.09401849 L1067.59381,13.1249489 L1067.59381,13.1249489 Z" transform="translate(-1054)"/>
</svg>
