<svg xmlns="http://www.w3.org/2000/svg" width="16" height="15" viewBox="0 0 16 15">
  <path fill="#FFFFFF" fill-rule="evenodd" d="M993.403361,4.66467877 L996.521822,4.66467877 L996.521822,14.5457306 L993.403361,14.5457306 L993.403361,4.66467877 Z M1005.04229,4.56969368 C1007.25861,4.56969368 1009,5.99100027 1009,9.05134183 L1009,14.5457306 L1005.46387,14.5457306 L1005.46387,9.43214963 C1005.46387,8.09411765 1004.91087,7.18026565 1003.69428,7.18026565 C1002.76395,7.18026565 1002.24652,7.79701816 1002.0058,8.39121713 C1001.91559,8.60417457 1001.92947,8.90127406 1001.92947,9.19880726 L1001.92947,14.5457306 L998.426294,14.5457306 C998.426294,14.5457306 998.471401,5.4878829 998.426294,4.66467877 L1001.92947,4.66467877 L1001.92947,6.21523448 C1002.13635,5.53732719 1003.25579,4.56969368 1005.04229,4.56969368 Z M994.904906,0 C996.055571,0 996.762971,0.737760911 996.785525,1.71320141 C996.785525,2.67042559 996.055571,3.42857143 994.88322,3.42857143 L994.860667,3.42857143 C993.732123,3.42857143 993,2.67346164 993,1.71580374 C993,0.739495798 993.753375,0 994.904906,0 Z" transform="translate(-993)"/>
</svg>
